# This file uses centimeters as units for non-parametric coordinates.

mtllib LampShade.mtl
g default
v 18.601671 5.983604 -23.423323
v 17.664440 5.983604 -24.104263
v 16.505957 5.983604 -24.104263
v 15.568726 5.983604 -23.423323
v 15.210734 5.983604 -22.321541
v 15.568726 5.983604 -21.219759
v 16.505959 5.983604 -20.538818
v 17.664440 5.983604 -20.538818
v 18.601671 5.983604 -21.219759
v 18.959663 5.983604 -22.321541
v 18.705139 5.983604 -23.498497
v 17.703960 5.983604 -24.225895
v 16.466436 5.983604 -24.225895
v 15.465258 5.983604 -23.498497
v 15.082843 5.983604 -22.321541
v 15.465258 5.983604 -21.144585
v 16.466436 5.983604 -20.417185
v 17.703960 5.983604 -20.417185
v 18.705139 5.983604 -21.144585
v 19.087555 5.983604 -22.321541
v 18.287716 8.956388 -23.195221
v 17.544519 8.956388 -23.735186
v 16.625877 8.956388 -23.735184
v 15.882683 8.956388 -23.195221
v 15.598806 8.956388 -22.321541
v 15.882683 8.956388 -21.447861
v 16.625877 8.956388 -20.907896
v 17.544519 8.956388 -20.907896
v 18.287716 8.956388 -21.447861
v 18.571592 8.956388 -22.321541
v 18.155264 8.956388 -23.098988
v 17.493927 8.956388 -23.579477
v 16.676470 8.956388 -23.579477
v 16.015133 8.956388 -23.098988
v 15.762526 8.956388 -22.321541
v 16.015133 8.956388 -21.544094
v 16.676470 8.956388 -21.063604
v 17.493927 8.956388 -21.063604
v 18.155264 8.956388 -21.544094
v 18.407871 8.956388 -22.321541
v 18.602177 8.464127 -22.321541
v 18.312460 8.464127 -21.429884
v 17.553972 8.464127 -20.878809
v 16.616426 8.464127 -20.878809
v 15.857937 8.464127 -21.429884
v 15.568221 8.464127 -22.321541
v 15.857937 8.464127 -23.213198
v 16.616426 8.464127 -23.764273
v 17.553972 8.464127 -23.764273
v 18.312460 8.464127 -23.213198
v 18.755362 7.304890 -22.321541
v 18.436390 7.304890 -21.339844
v 17.601307 7.304890 -20.733122
v 16.569092 7.304890 -20.733122
v 15.734010 7.304890 -21.339844
v 15.415037 7.304890 -22.321541
v 15.734010 7.304890 -23.303236
v 16.569092 7.304890 -23.909958
v 17.601307 7.304890 -23.909958
v 18.436390 7.304890 -23.303236
vt 0.563204 0.110329
vt 0.524142 0.081949
vt 0.475858 0.081949
vt 0.436796 0.110329
vt 0.421875 0.156250
vt 0.436796 0.202171
vt 0.475858 0.230551
vt 0.524142 0.230551
vt 0.563204 0.202171
vt 0.578125 0.156250
vt 0.626409 0.064409
vt 0.548284 0.007647
vt 0.451716 0.007647
vt 0.373591 0.064409
vt 0.343750 0.156250
vt 0.373591 0.248091
vt 0.451716 0.304853
vt 0.548284 0.304853
vt 0.626409 0.248091
vt 0.656250 0.156250
vt 0.375000 0.312500
vt 0.400000 0.312500
vt 0.425000 0.312500
vt 0.450000 0.312500
vt 0.475000 0.312500
vt 0.500000 0.312500
vt 0.525000 0.312500
vt 0.550000 0.312500
vt 0.575000 0.312500
vt 0.600000 0.312500
vt 0.625000 0.312500
vt 0.375000 0.687500
vt 0.400000 0.687500
vt 0.425000 0.687500
vt 0.450000 0.687500
vt 0.475000 0.687500
vt 0.500000 0.687500
vt 0.525000 0.687500
vt 0.550000 0.687500
vt 0.575000 0.687500
vt 0.600000 0.687500
vt 0.625000 0.687500
vt 0.626409 0.751909
vt 0.548284 0.695147
vt 0.451716 0.695147
vt 0.373591 0.751909
vt 0.343750 0.843750
vt 0.373591 0.935591
vt 0.451716 0.992353
vt 0.548284 0.992353
vt 0.626409 0.935591
vt 0.656250 0.843750
vt 0.563204 0.797829
vt 0.524142 0.769449
vt 0.475858 0.769449
vt 0.436796 0.797829
vt 0.421875 0.843750
vt 0.436796 0.889671
vt 0.475858 0.918051
vt 0.524142 0.918051
vt 0.563204 0.889671
vt 0.578125 0.843750
vt 0.600000 0.625404
vt 0.575000 0.625404
vt 0.550000 0.625404
vt 0.525000 0.625404
vt 0.500000 0.625404
vt 0.475000 0.625404
vt 0.450000 0.625404
vt 0.425000 0.625404
vt 0.400000 0.625404
vt 0.625000 0.625404
vt 0.375000 0.625404
vt 0.600000 0.479173
vt 0.575000 0.479173
vt 0.550000 0.479173
vt 0.525000 0.479173
vt 0.500000 0.479173
vt 0.475000 0.479173
vt 0.450000 0.479173
vt 0.425000 0.479173
vt 0.400000 0.479173
vt 0.625000 0.479173
vt 0.375000 0.479173
vn 0.000000 -1.000000 0.000001
vn 0.000000 -1.000000 0.000001
vn 0.000000 -1.000000 0.000001
vn 0.000000 -1.000000 0.000001
vn 0.000000 -1.000000 0.000000
vn 0.000000 -1.000000 0.000000
vn 0.000000 -1.000000 0.000000
vn 0.000000 -1.000000 0.000000
vn 0.000000 -1.000000 -0.000000
vn 0.000000 -1.000000 -0.000000
vn 0.000000 -1.000000 -0.000000
vn 0.000000 -1.000000 -0.000000
vn 0.000000 -1.000000 0.000001
vn 0.000000 -1.000000 0.000001
vn 0.000000 -1.000000 0.000001
vn 0.000000 -1.000000 0.000001
vn 0.000000 -1.000000 -0.000001
vn 0.000000 -1.000000 -0.000001
vn 0.000000 -1.000000 -0.000001
vn 0.000000 -1.000000 -0.000001
vn 0.000000 -1.000000 -0.000001
vn 0.000000 -1.000000 -0.000001
vn 0.000000 -1.000000 -0.000001
vn 0.000000 -1.000000 -0.000001
vn 0.000000 -1.000000 -0.000000
vn 0.000000 -1.000000 -0.000000
vn 0.000000 -1.000000 -0.000000
vn 0.000000 -1.000000 -0.000000
vn 0.000000 -1.000000 0.000000
vn 0.000000 -1.000000 0.000000
vn 0.000000 -1.000000 0.000000
vn 0.000000 -1.000000 0.000000
vn 0.000000 -1.000000 -0.000001
vn 0.000000 -1.000000 -0.000001
vn 0.000000 -1.000000 -0.000001
vn 0.000000 -1.000000 -0.000001
vn 0.000000 -1.000000 0.000001
vn 0.000000 -1.000000 0.000001
vn 0.000000 -1.000000 0.000001
vn 0.000000 -1.000000 0.000001
vn 0.571669 0.232557 -0.786837
vn 0.571669 0.232557 -0.786837
vn 0.571669 0.232557 -0.786837
vn 0.571669 0.232557 -0.786837
vn 0.000000 0.232557 -0.972583
vn 0.000000 0.232557 -0.972583
vn 0.000000 0.232557 -0.972583
vn 0.000000 0.232557 -0.972583
vn -0.571669 0.232558 -0.786837
vn -0.571669 0.232558 -0.786837
vn -0.571669 0.232558 -0.786837
vn -0.571669 0.232558 -0.786837
vn -0.924981 0.232558 -0.300544
vn -0.924981 0.232558 -0.300544
vn -0.924981 0.232558 -0.300544
vn -0.924981 0.232558 -0.300544
vn -0.924981 0.232558 0.300544
vn -0.924981 0.232558 0.300544
vn -0.924981 0.232558 0.300544
vn -0.924981 0.232558 0.300544
vn -0.571670 0.232558 0.786836
vn -0.571670 0.232558 0.786836
vn -0.571670 0.232558 0.786836
vn -0.571670 0.232558 0.786836
vn 0.000000 0.232557 0.972583
vn 0.000000 0.232557 0.972583
vn 0.000000 0.232557 0.972583
vn 0.000000 0.232557 0.972583
vn 0.571670 0.232557 0.786836
vn 0.571670 0.232557 0.786836
vn 0.571670 0.232557 0.786836
vn 0.571669 0.232557 0.786836
vn 0.924982 0.232556 0.300544
vn 0.924982 0.232556 0.300544
vn 0.924982 0.232556 0.300544
vn 0.924982 0.232556 0.300545
vn 0.924982 0.232556 -0.300544
vn 0.924982 0.232556 -0.300544
vn 0.924982 0.232556 -0.300544
vn 0.924982 0.232556 -0.300544
vn 0.000000 1.000000 0.000000
vn 0.000000 1.000000 0.000000
vn 0.000000 1.000000 0.000000
vn 0.000000 1.000000 0.000000
vn 0.000000 1.000000 -0.000003
vn 0.000000 1.000000 -0.000003
vn 0.000000 1.000000 -0.000003
vn 0.000000 1.000000 -0.000003
vn 0.000000 1.000000 -0.000001
vn 0.000000 1.000000 -0.000001
vn 0.000000 1.000000 -0.000001
vn 0.000000 1.000000 -0.000001
vn 0.000000 1.000000 -0.000001
vn 0.000000 1.000000 -0.000001
vn 0.000000 1.000000 -0.000001
vn 0.000000 1.000000 -0.000001
vn 0.000000 1.000000 0.000001
vn 0.000000 1.000000 0.000001
vn 0.000000 1.000000 0.000001
vn 0.000000 1.000000 0.000001
vn 0.000000 1.000000 0.000000
vn 0.000000 1.000000 0.000000
vn 0.000000 1.000000 0.000000
vn 0.000000 1.000000 0.000000
vn 0.000000 1.000000 0.000003
vn 0.000000 1.000000 0.000003
vn 0.000000 1.000000 0.000003
vn 0.000000 1.000000 0.000003
vn 0.000000 1.000000 0.000001
vn 0.000000 1.000000 0.000001
vn 0.000000 1.000000 0.000001
vn 0.000000 1.000000 0.000001
vn 0.000000 1.000000 0.000000
vn 0.000000 1.000000 0.000000
vn 0.000000 1.000000 0.000000
vn 0.000000 1.000000 0.000000
vn 0.000000 1.000000 0.000000
vn 0.000000 1.000000 0.000000
vn 0.000000 1.000000 0.000000
vn 0.000000 1.000000 0.000000
vn -0.578836 -0.173842 0.796698
vn -0.578836 -0.173842 0.796698
vn -0.578836 -0.173842 0.796698
vn -0.578836 -0.173842 0.796698
vn -0.936575 -0.173842 0.304313
vn -0.936575 -0.173842 0.304313
vn -0.936575 -0.173842 0.304313
vn -0.936575 -0.173842 0.304313
vn -0.936575 -0.173842 -0.304312
vn -0.936575 -0.173842 -0.304312
vn -0.936575 -0.173842 -0.304312
vn -0.936575 -0.173842 -0.304312
vn -0.578836 -0.173842 -0.796698
vn -0.578836 -0.173842 -0.796698
vn -0.578836 -0.173842 -0.796698
vn -0.578836 -0.173842 -0.796698
vn 0.000000 -0.173842 -0.984774
vn 0.000000 -0.173842 -0.984774
vn 0.000000 -0.173842 -0.984774
vn 0.000000 -0.173842 -0.984774
vn 0.578836 -0.173842 -0.796698
vn 0.578836 -0.173842 -0.796698
vn 0.578836 -0.173842 -0.796698
vn 0.578836 -0.173842 -0.796698
vn 0.936575 -0.173841 -0.304312
vn 0.936575 -0.173841 -0.304312
vn 0.936575 -0.173841 -0.304312
vn 0.936575 -0.173841 -0.304312
vn 0.936575 -0.173842 0.304312
vn 0.936575 -0.173842 0.304312
vn 0.936575 -0.173842 0.304312
vn 0.936575 -0.173842 0.304312
vn 0.578836 -0.173842 0.796698
vn 0.578836 -0.173842 0.796698
vn 0.578836 -0.173842 0.796698
vn 0.578836 -0.173842 0.796698
vn 0.000000 -0.173842 0.984774
vn 0.000000 -0.173842 0.984774
vn 0.000000 -0.173842 0.984774
vn 0.000000 -0.173842 0.984774
vn 0.949400 0.058987 0.308479
vn 0.949400 0.058987 0.308479
vn 0.949400 0.058987 0.308479
vn 0.949400 0.058987 0.308479
vn 0.586764 0.058986 0.807607
vn 0.586764 0.058986 0.807607
vn 0.586763 0.058986 0.807607
vn 0.586764 0.058986 0.807607
vn 0.000000 0.058986 0.998259
vn 0.000000 0.058986 0.998259
vn 0.000000 0.058986 0.998259
vn 0.000000 0.058986 0.998259
vn -0.586764 0.058985 0.807607
vn -0.586764 0.058985 0.807607
vn -0.586764 0.058985 0.807607
vn -0.586764 0.058985 0.807607
vn -0.949400 0.058988 0.308479
vn -0.949400 0.058988 0.308479
vn -0.949400 0.058988 0.308479
vn -0.949400 0.058988 0.308479
vn -0.949400 0.058989 -0.308479
vn -0.949400 0.058989 -0.308479
vn -0.949400 0.058989 -0.308479
vn -0.949400 0.058989 -0.308479
vn -0.586764 0.058987 -0.807607
vn -0.586764 0.058987 -0.807607
vn -0.586764 0.058987 -0.807607
vn -0.586764 0.058987 -0.807607
vn 0.000000 0.058988 -0.998259
vn 0.000000 0.058988 -0.998259
vn 0.000000 0.058988 -0.998259
vn 0.000000 0.058988 -0.998259
vn 0.586764 0.058985 -0.807607
vn 0.586764 0.058985 -0.807607
vn 0.586764 0.058985 -0.807607
vn 0.586764 0.058985 -0.807607
vn 0.949400 0.058988 -0.308479
vn 0.949400 0.058988 -0.308479
vn 0.949400 0.058988 -0.308479
vn 0.949400 0.058988 -0.308479
vn 0.943634 0.124695 0.306604
vn 0.943634 0.124695 0.306604
vn 0.943634 0.124695 0.306604
vn 0.943634 0.124695 0.306604
vn 0.583197 0.124694 0.802703
vn 0.583197 0.124694 0.802703
vn 0.583197 0.124694 0.802703
vn 0.583197 0.124694 0.802703
vn 0.000000 0.124695 0.992195
vn 0.000000 0.124695 0.992195
vn 0.000000 0.124695 0.992195
vn 0.000000 0.124695 0.992195
vn -0.583197 0.124695 0.802703
vn -0.583197 0.124695 0.802703
vn -0.583197 0.124695 0.802703
vn -0.583197 0.124695 0.802703
vn -0.943634 0.124693 0.306604
vn -0.943634 0.124693 0.306604
vn -0.943634 0.124693 0.306604
vn -0.943634 0.124693 0.306604
vn -0.943634 0.124693 -0.306605
vn -0.943634 0.124693 -0.306605
vn -0.943634 0.124693 -0.306605
vn -0.943634 0.124693 -0.306605
vn -0.583198 0.124694 -0.802702
vn -0.583198 0.124694 -0.802702
vn -0.583198 0.124694 -0.802702
vn -0.583198 0.124694 -0.802702
vn 0.000000 0.124693 -0.992195
vn 0.000000 0.124693 -0.992195
vn 0.000000 0.124693 -0.992195
vn 0.000000 0.124693 -0.992195
vn 0.583199 0.124693 -0.802702
vn 0.583199 0.124693 -0.802702
vn 0.583199 0.124693 -0.802702
vn 0.583199 0.124693 -0.802702
vn 0.943634 0.124694 -0.306605
vn 0.943634 0.124694 -0.306605
vn 0.943634 0.124694 -0.306605
vn 0.943634 0.124694 -0.306605
s off
g LampShade
usemtl initialShadingGroup
f 1/1/1 2/2/2 12/12/3 11/11/4
f 2/2/5 3/3/6 13/13/7 12/12/8
f 3/3/9 4/4/10 14/14/11 13/13/12
f 4/4/13 5/5/14 15/15/15 14/14/16
f 5/5/17 6/6/18 16/16/19 15/15/20
f 6/6/21 7/7/22 17/17/23 16/16/24
f 7/7/25 8/8/26 18/18/27 17/17/28
f 8/8/29 9/9/30 19/19/31 18/18/32
f 9/9/33 10/10/34 20/20/35 19/19/36
f 10/10/37 1/1/38 11/11/39 20/20/40
f 11/21/41 12/22/42 59/82/43 60/84/44
f 12/22/45 13/23/46 58/81/47 59/82/48
f 13/23/49 14/24/50 57/80/51 58/81/52
f 14/24/53 15/25/54 56/79/55 57/80/56
f 15/25/57 16/26/58 55/78/59 56/79/60
f 16/26/61 17/27/62 54/77/63 55/78/64
f 17/27/65 18/28/66 53/76/67 54/77/68
f 18/28/69 19/29/70 52/75/71 53/76/72
f 19/29/73 20/30/74 51/74/75 52/75/76
f 20/30/77 11/31/78 60/83/79 51/74/80
f 21/51/81 22/50/82 32/60/83 31/61/84
f 22/50/85 23/49/86 33/59/87 32/60/88
f 23/49/89 24/48/90 34/58/91 33/59/92
f 24/48/93 25/47/94 35/57/95 34/58/96
f 25/47/97 26/46/98 36/56/99 35/57/100
f 26/46/101 27/45/102 37/55/103 36/56/104
f 27/45/105 28/44/106 38/54/107 37/55/108
f 28/44/109 29/43/110 39/53/111 38/54/112
f 29/43/113 30/52/114 40/62/115 39/53/116
f 30/52/117 21/51/118 31/61/119 40/62/120
f 2/2/121 1/1/122 31/61/123 32/60/124
f 1/1/125 10/10/126 40/62/127 31/61/128
f 10/10/129 9/9/130 39/53/131 40/62/132
f 9/9/133 8/8/134 38/54/135 39/53/136
f 8/8/137 7/7/138 37/55/139 38/54/140
f 7/7/141 6/6/142 36/56/143 37/55/144
f 6/6/145 5/5/146 35/57/147 36/56/148
f 5/5/149 4/4/150 34/58/151 35/57/152
f 4/4/153 3/3/154 33/59/155 34/58/156
f 3/3/157 2/2/158 32/60/159 33/59/160
f 42/64/161 41/63/162 30/41/163 29/40/164
f 43/65/165 42/64/166 29/40/167 28/39/168
f 44/66/169 43/65/170 28/39/171 27/38/172
f 45/67/173 44/66/174 27/38/175 26/37/176
f 46/68/177 45/67/178 26/37/179 25/36/180
f 47/69/181 46/68/182 25/36/183 24/35/184
f 48/70/185 47/69/186 24/35/187 23/34/188
f 49/71/189 48/70/190 23/34/191 22/33/192
f 50/73/193 49/71/194 22/33/195 21/32/196
f 41/63/197 50/72/198 21/42/199 30/41/200
f 52/75/201 51/74/202 41/63/203 42/64/204
f 53/76/205 52/75/206 42/64/207 43/65/208
f 54/77/209 53/76/210 43/65/211 44/66/212
f 55/78/213 54/77/214 44/66/215 45/67/216
f 56/79/217 55/78/218 45/67/219 46/68/220
f 57/80/221 56/79/222 46/68/223 47/69/224
f 58/81/225 57/80/226 47/69/227 48/70/228
f 59/82/229 58/81/230 48/70/231 49/71/232
f 60/84/233 59/82/234 49/71/235 50/73/236
f 51/74/237 60/83/238 50/72/239 41/63/240
